<?xml version="1.0" encoding="UTF-8"?>
<svg id="Ebene_1" xmlns="http://www.w3.org/2000/svg" version="1.1" viewBox="0 0 607.76 851.96">
  <!-- Generator: Adobe Illustrator 29.5.0, SVG Export Plug-In . SVG Version: 2.1.0 Build 137)  -->
  <defs>
    <style>
      .st0 {
        fill: #a4a3a3;
      }

      .st1 {
        fill: #e0dba9;
      }

      .st2 {
        fill: #7f7c7c;
      }
    </style>
  </defs>
  <path class="st1" d="M551.98,176.28c1.05,3.59.53,7.37,0,11-.02,7.07-.83,15.28,1,22,.76,11.32.76,22.68,0,34-2.29,8.14-.38,17.56-1,26h15.5c3.64,0,15.7,3.04,19.49,4.51,9.71,3.77,15.44,9.87,18.14,19.86,4.65,17.23,5.4,33.94-16.59,35.66-11.81.92-24.53-.81-36.54.96v200.5c0,3.41,7.67,20.48,9.27,25.73,4.84,15.88,8.68,32.06,11.57,48.43l3.16,29.34c.95,25.97.67,52.04,0,78l-3.3,24.2c-22.46,101.19-109.41,110.95-197.19,113.81-57.92,1.88-120.21,2.9-178-1.02-79.05-5.36-145.65-30.05-162.51-115.99-1.35-3.96-2.22-9.15-2.36-13.44-1.07-32.18-1.05-64.42.36-96.56,1.59-5.38,1.35-11.72,2.14-17.36,2.12-15.19,6.21-31.71,10.59-46.41,1.73-5.81,10.27-26.06,10.27-29.73v-200.5c-8.37,1.2-17.05,1.36-25.55,1.05-4.4-.16-13.98-.52-17.72-1.28-4.61-.94-10.87-7.48-12.05-11.95-2.23-8.48,1.39-26.72,6.9-33.73,5.51-7.01,20.54-14.09,28.91-14.09h19.5c1.11-82.67-12.2-180.64,67.71-231.79C194.47-7.81,343.48-6.63,423.19,12.57c76.19,18.35,117.73,61.35,126.67,140.33l2.12,23.38Z"/>
  <path class="st2" d="M268.78,193.58c48.09-2.01,99.16-.22,146.54,7.87,25.13,4.29,63.9,10.7,73.14,38.86,5.28,16.1-4.08,43.53-8.97,59.97-2.81,9.45-6.6,27.85-15.15,32.85s-26.88-2.03-37.02-3.69c-75.03-12.26-158.4-13.03-233.69-2.02-12.1,1.77-29.45,7.32-40.18,7.87s-15.03-5.7-18.48-14.49c-4.95-12.59-15.42-48.27-16.87-61.13-3.39-30.06,18.74-45.23,44.69-52.1,32.14-8.51,72.69-12.6,106-14h-.01Z"/>
  <path class="st2" d="M190.72,571.52c8.25-1.28,16.84.47,24.77.75,59.75,2.14,117.24,2.19,176.98,0,17.64-.65,30.92-4.54,43.92,11.1,7.99,9.61,18.53,46.34,22.09,59.91,2.74,10.45,2.06,17.26-7.01,24-9.62,7.16-42.94,10.4-56.12,11.88-64.4,7.2-135.57,7.12-199.73-2.02-10.66-1.52-32.74-3.8-40.57-10.43-5.9-5-8.38-12.04-6.84-19.68,10.39-22.34,12-70.75,42.5-75.5h0Z"/>
  <path class="st2" d="M102.98,312.28c8.36,19.22,18.63,41.06,22,62,2.9,48.93,3.57,97.93,2,147-1.29,28.01-4.66,74.07-13.28,100.22-2.15,6.54-7.17,14.33-13.72,6.78l-.72-.96c-.43-107.26-.69-214.53-.79-321.79,2.06.59,3.56,2.84,4.5,6.75h.01Z"/>
  <path class="st2" d="M507.98,628.28c-10.54,12.15-15.32-12.32-16.68-18.82-3.25-15.53-5.56-33.37-7.32-49.18-3.16-62.34-3.49-124.68-1-187,3.66-21.25,15.82-49.37,25-69l1,.31-.1,321.76-.9,1.93Z"/>
  <path class="st2" d="M446.33,793.94c-5.07-5.12-.95-22,1.2-28.61,5.48-16.87,22.41-34.99,35.98-46.02,9.61-7.81,27.51-23,39.5-12.55,8.81,7.67,3.28,24.45.23,34.29-8.01,25.84-21.04,37.97-45.29,48.71-8.09,3.58-24.39,11.5-31.62,4.19h0Z"/>
  <path class="st2" d="M90.72,703.52c9.18-1.7,16.74,3.64,23.99,8.54,14.7,9.93,35.04,29.49,42.14,45.86,2.65,6.11,7.47,21.52,7.21,27.87-.81,19.53-25.43,8.34-35.74,3.66-26.9-12.2-39.19-28.59-45.65-57.35-2.17-9.65-5.94-25.98,8.05-28.58h0Z"/>
  <path class="st2" d="M425.75,57.47c6.24-.7,28.81,8.1,35.26,11.29,21.76,10.73,36.61,27.83,44.01,50.99,9.77,30.58-9.66,24.41-28.71,14.71-21.37-10.89-53.06-35.27-59.8-59.2-2.31-8.18-.56-16.7,9.24-17.79h0Z"/>
  <path class="st2" d="M179.79,57.51c18.81-1,12.78,17.02,7.36,27.44-10.9,20.97-49.67,53.11-72.9,57.09-30.47,5.22-2.07-43.16,6.22-52.77,11.08-12.84,42.46-30.87,59.32-31.76h0Z"/>
  <path class="st0" d="M102.98,312.28l-4-6.5,1,322.5c-.34-.39-1.44-.39-1.8-1.65l-.2-325.84c.98-1.56,1.23.75,1.54,1.44,1.41,3.12,3.11,6.62,3.46,10.06h0Z"/>
  <path class="st0" d="M507.98,628.28v-324c.3-.64.54-5.04,2-3.5l-.2,325.84c-.37,1.26-1.47,1.26-1.8,1.65h0Z"/>
  <path class="st0" d="M483.98,560.28c-1.93-17.35-2.34-33.2-2.96-50.54-1.46-40.81-4.87-96.87,1.96-136.46l1,187Z"/>
  <path class="st0" d="M126.98,521.28l-2-147c6.78,42.04,3.99,103.7,2,147Z"/>
</svg>