<?xml version="1.0" encoding="UTF-8"?>
<svg id="Ebene_1" xmlns="http://www.w3.org/2000/svg" version="1.1" viewBox="0 0 607.76 851.96">
  <!-- Generator: Adobe Illustrator 29.5.0, SVG Export Plug-In . SVG Version: 2.1.0 Build 137)  -->
  <defs>
    <style>
      .st0 {
        fill: #a4a3a3;
      }

      .st1 {
        fill: #e0dba9;
      }

      .st2 {
        fill: #7f7c7c;
      }
    </style>
  </defs>
  <path class="st1" d="M54.75,674.64c-1.04-3.59-.5-7.37.05-11,.05-7.07.89-15.28-.91-22-.71-11.32-.67-22.68.14-34,2.32-8.13.45-17.56,1.11-26l-15.5-.06c-3.64-.01-15.69-3.1-19.47-4.59-9.69-3.81-15.4-9.93-18.06-19.93-4.58-17.25-5.26-33.96,16.74-35.59,11.81-.87,24.53.91,36.54-.81l.83-200.5c.01-3.41-7.59-20.51-9.16-25.77-4.77-15.9-8.55-32.1-11.37-48.48l-3.04-29.35c-.84-25.97-.46-52.04.32-78l3.4-24.19C59.23,13.27,146.22,3.87,234.01,1.37c57.93-1.64,120.22-2.4,177.99,1.75,79.03,5.69,145.52,30.65,162.03,116.66,1.33,3.97,2.18,9.16,2.3,13.45.94,32.18.78,64.42-.76,96.56-1.61,5.37-1.4,11.71-2.21,17.35-2.18,15.18-6.34,31.68-10.78,46.37-1.75,5.8-10.38,26.02-10.39,29.69l-.83,200.5c8.37-1.17,17.06-1.29,25.55-.94,4.4.18,13.98.58,17.71,1.35,4.61.96,10.84,7.52,12,12,2.2,8.49-1.5,26.71-7.04,33.7-5.54,6.99-20.6,14.01-28.97,13.97l-19.5-.08c-1.45,82.66,11.46,180.69-68.66,231.51-70.98,45-219.98,43.2-299.61,23.68-76.11-18.66-117.48-61.83-126.09-140.85l-2.02-23.39Z"/>
  <path class="st2" d="M338.02,658.51c-48.1,1.81-99.16-.19-146.51-8.47-25.11-4.39-63.86-10.96-72.98-39.16-5.21-16.12,4.26-43.51,9.22-59.93,2.85-9.44,6.71-27.82,15.29-32.79,8.57-4.96,26.87,2.14,37,3.84,74.98,12.57,158.34,13.68,233.68,2.98,12.11-1.72,29.48-7.2,40.21-7.7,10.73-.51,15.01,5.76,18.42,14.57,4.9,12.61,15.22,48.33,16.62,61.2,3.27,30.07-18.93,45.15-44.9,51.92-32.17,8.38-72.74,12.3-106.06,13.56h.01s0,0,0,0Z"/>
  <path class="st2" d="M417.63,280.89c-8.26,1.25-16.84-.54-24.77-.85-59.74-2.39-117.23-2.67-176.98-.73-17.64.58-30.94,4.41-43.87-11.28-7.95-9.64-18.34-46.42-21.84-60-2.7-10.46-1.99-17.27,7.11-23.97,9.65-7.12,42.98-10.22,56.17-11.65,64.43-6.93,135.6-6.56,199.72,2.84,10.65,1.56,32.72,3.93,40.53,10.6,5.88,5.02,8.33,12.07,6.76,19.71-10.48,22.3-12.29,70.7-42.81,75.32h-.01Z"/>
  <path class="st2" d="M504.3,540.49c-8.28-19.25-18.46-41.14-21.74-62.09-2.7-48.94-3.17-97.94-1.39-147.01,1.41-28,4.97-74.05,13.69-100.16,2.18-6.53,7.23-14.3,13.75-6.72l.72.96c-.01,107.26-.19,214.53-.54,321.79-2.06-.6-3.55-2.85-4.47-6.77h-.01Z"/>
  <path class="st2" d="M100.61,222.83c10.59-12.11,15.27,12.38,16.6,18.89,3.19,15.54,5.42,33.39,7.12,49.21,2.9,62.35,2.98,124.69.23,187-3.75,21.23-16.02,49.3-25.28,68.9l-1-.31,1.43-321.76.91-1.93Z"/>
  <path class="st2" d="M162.94,57.42c5.05,5.14.86,22-1.32,28.6-5.55,16.85-22.55,34.9-36.17,45.87-9.64,7.77-27.6,22.89-39.55,12.39-8.78-7.71-3.18-24.46-.09-34.29,8.12-25.81,21.2-37.88,45.49-48.52,8.1-3.55,24.44-11.4,31.64-4.06h0Z"/>
  <path class="st2" d="M518.18,149.3c-9.19,1.66-16.72-3.71-23.95-8.64-14.66-9.99-34.92-29.63-41.95-46.03-2.62-6.12-7.38-21.55-7.1-27.9.89-19.53,25.46-8.24,35.75-3.51,26.85,12.31,39.07,28.75,45.41,57.54,2.13,9.66,5.83,26-8.17,28.55h0Z"/>
  <path class="st2" d="M180.49,793.97c-6.24.67-28.78-8.22-35.21-11.44-21.72-10.82-36.5-27.98-43.8-51.17-9.64-30.62,9.76-24.37,28.77-14.59,21.32,10.98,52.91,35.49,59.56,59.45,2.28,8.19.49,16.7-9.31,17.75h0Z"/>
  <path class="st2" d="M426.45,794.94c-18.81.92-12.71-17.07-7.25-27.47,10.99-20.92,49.89-52.9,73.13-56.79,30.49-5.09,1.89,43.17-6.44,52.74-11.13,12.79-42.59,30.69-59.45,31.52h0Z"/>
  <path class="st0" d="M504.3,540.49l3.97,6.52.33-322.5c.34.39,1.44.4,1.79,1.66l-1.14,325.84c-.99,1.56-1.23-.76-1.53-1.45-1.4-3.13-3.08-6.63-3.42-10.07h0Z"/>
  <path class="st0" d="M100.61,222.83l-1.33,324c-.3.64-.56,5.04-2.01,3.49l1.54-325.84c.38-1.26,1.48-1.25,1.81-1.64h0Z"/>
  <path class="st0" d="M124.33,290.92c1.86,17.36,2.2,33.21,2.75,50.55,1.29,40.82,4.47,96.89-2.52,136.45l-.23-187Z"/>
  <path class="st0" d="M481.17,331.39l1.39,147.01c-6.61-42.07-3.56-103.72-1.39-147.01Z"/>
</svg>